<svg width="20" height="21" viewBox="0 0 20 21" fill="none" xmlns="http://www.w3.org/2000/svg">
<path fill-rule="evenodd" clip-rule="evenodd" d="M16.6667 15.2402C16.6667 15.6994 16.2925 16.0736 15.8333 16.0736H14.1667V7.74023H15.8333C16.2925 7.74023 16.6667 8.1144 16.6667 8.57357V15.2402ZM3.33332 15.2402V8.57357C3.33332 8.1144 3.70749 7.74023 4.16666 7.74023H5.83332V16.0736H4.16666C3.70749 16.0736 3.33332 15.6994 3.33332 15.2402ZM8.33332 4.82357C8.33332 4.59357 8.51999 4.4069 8.74999 4.4069H11.25C11.48 4.4069 11.6667 4.59357 11.6667 4.82357V6.07357H8.33332V4.82357ZM7.49999 16.0736H12.5V7.74023H7.49999V16.0736ZM15.8333 6.07357H13.3333V4.82357C13.3333 3.67523 12.3983 2.74023 11.25 2.74023H8.74999C7.60166 2.74023 6.66666 3.67523 6.66666 4.82357V6.07357H4.16666C2.78832 6.07357 1.66666 7.19523 1.66666 8.57357V15.2402C1.66666 16.6186 2.78832 17.7402 4.16666 17.7402H15.8333C17.2117 17.7402 18.3333 16.6186 18.3333 15.2402V8.57357C18.3333 7.19523 17.2117 6.07357 15.8333 6.07357Z" fill="#231F20"/>
<mask id="mask0_3_386" style="mask-type:luminance" maskUnits="userSpaceOnUse" x="1" y="2" width="18" height="16">
<path fill-rule="evenodd" clip-rule="evenodd" d="M16.6667 15.2402C16.6667 15.6994 16.2925 16.0736 15.8333 16.0736H14.1667V7.74023H15.8333C16.2925 7.74023 16.6667 8.1144 16.6667 8.57357V15.2402ZM3.33332 15.2402V8.57357C3.33332 8.1144 3.70749 7.74023 4.16666 7.74023H5.83332V16.0736H4.16666C3.70749 16.0736 3.33332 15.6994 3.33332 15.2402ZM8.33332 4.82357C8.33332 4.59357 8.51999 4.4069 8.74999 4.4069H11.25C11.48 4.4069 11.6667 4.59357 11.6667 4.82357V6.07357H8.33332V4.82357ZM7.49999 16.0736H12.5V7.74023H7.49999V16.0736ZM15.8333 6.07357H13.3333V4.82357C13.3333 3.67523 12.3983 2.74023 11.25 2.74023H8.74999C7.60166 2.74023 6.66666 3.67523 6.66666 4.82357V6.07357H4.16666C2.78832 6.07357 1.66666 7.19523 1.66666 8.57357V15.2402C1.66666 16.6186 2.78832 17.7402 4.16666 17.7402H15.8333C17.2117 17.7402 18.3333 16.6186 18.3333 15.2402V8.57357C18.3333 7.19523 17.2117 6.07357 15.8333 6.07357Z" fill="white"/>
</mask>
<g mask="url(#mask0_3_386)">
<rect y="0.240234" width="20" height="20" fill="#B5C7DB"/>
</g>
</svg>
