<svg width="20" height="21" viewBox="0 0 20 21" fill="none" xmlns="http://www.w3.org/2000/svg">
<path fill-rule="evenodd" clip-rule="evenodd" d="M10 12.7402C8.62169 12.7402 7.50002 11.6185 7.50002 10.2402C7.50002 8.86186 8.62169 7.74019 10 7.74019C11.3784 7.74019 12.5 8.86186 12.5 10.2402C12.5 11.6185 11.3784 12.7402 10 12.7402ZM10 6.07353C7.70252 6.07353 5.83335 7.94269 5.83335 10.2402C5.83335 12.5377 7.70252 14.4069 10 14.4069C12.2975 14.4069 14.1667 12.5377 14.1667 10.2402C14.1667 7.94269 12.2975 6.07353 10 6.07353ZM10 16.9069C6.32419 16.9069 3.33335 13.916 3.33335 10.2402C3.33335 6.56436 6.32419 3.57353 10 3.57353C13.6759 3.57353 16.6667 6.56436 16.6667 10.2402C16.6667 13.916 13.6759 16.9069 10 16.9069ZM10 1.90686C5.40502 1.90686 1.66669 5.64519 1.66669 10.2402C1.66669 14.8352 5.40502 18.5735 10 18.5735C14.595 18.5735 18.3334 14.8352 18.3334 10.2402C18.3334 5.64519 14.595 1.90686 10 1.90686Z" fill="#231F20"/>
<mask id="mask0_3_430" style="mask-type:luminance" maskUnits="userSpaceOnUse" x="1" y="1" width="18" height="18">
<path fill-rule="evenodd" clip-rule="evenodd" d="M10 12.7402C8.62169 12.7402 7.50002 11.6185 7.50002 10.2402C7.50002 8.86186 8.62169 7.74019 10 7.74019C11.3784 7.74019 12.5 8.86186 12.5 10.2402C12.5 11.6185 11.3784 12.7402 10 12.7402ZM10 6.07353C7.70252 6.07353 5.83335 7.94269 5.83335 10.2402C5.83335 12.5377 7.70252 14.4069 10 14.4069C12.2975 14.4069 14.1667 12.5377 14.1667 10.2402C14.1667 7.94269 12.2975 6.07353 10 6.07353ZM10 16.9069C6.32419 16.9069 3.33335 13.916 3.33335 10.2402C3.33335 6.56436 6.32419 3.57353 10 3.57353C13.6759 3.57353 16.6667 6.56436 16.6667 10.2402C16.6667 13.916 13.6759 16.9069 10 16.9069ZM10 1.90686C5.40502 1.90686 1.66669 5.64519 1.66669 10.2402C1.66669 14.8352 5.40502 18.5735 10 18.5735C14.595 18.5735 18.3334 14.8352 18.3334 10.2402C18.3334 5.64519 14.595 1.90686 10 1.90686Z" fill="white"/>
</mask>
<g mask="url(#mask0_3_430)">
<rect y="0.240234" width="20" height="20" fill="#B5C7DB"/>
</g>
</svg>
