<svg width="20" height="21" viewBox="0 0 20 21" fill="none" xmlns="http://www.w3.org/2000/svg">
<path fill-rule="evenodd" clip-rule="evenodd" d="M16.4497 3.79086C16.1606 3.50086 15.6914 3.50086 15.4022 3.79086L3.55057 15.6425C3.40557 15.7875 3.33307 15.9767 3.33307 16.1667C3.33307 16.3559 3.40557 16.5459 3.55057 16.69C3.83974 16.9792 4.30807 16.9792 4.59807 16.69L16.4497 4.83836C16.7389 4.54836 16.7389 4.08003 16.4497 3.79086ZM13.3333 16.0736C12.6442 16.0736 12.0833 15.5128 12.0833 14.8236C12.0833 14.1344 12.6442 13.5736 13.3333 13.5736C14.0225 13.5736 14.5833 14.1344 14.5833 14.8236C14.5833 15.5128 14.0225 16.0736 13.3333 16.0736ZM13.3333 11.9069C11.725 11.9069 10.4167 13.2153 10.4167 14.8236C10.4167 16.4319 11.725 17.7403 13.3333 17.7403C14.9417 17.7403 16.25 16.4319 16.25 14.8236C16.25 13.2153 14.9417 11.9069 13.3333 11.9069ZM6.66665 5.24028C7.35582 5.24028 7.91665 5.80111 7.91665 6.49028C7.91665 7.17945 7.35582 7.74028 6.66665 7.74028C5.97749 7.74028 5.41665 7.17945 5.41665 6.49028C5.41665 5.80111 5.97749 5.24028 6.66665 5.24028ZM6.66665 9.40695C8.27499 9.40695 9.58332 8.09861 9.58332 6.49028C9.58332 4.88195 8.27499 3.57361 6.66665 3.57361C5.05832 3.57361 3.74999 4.88195 3.74999 6.49028C3.74999 8.09861 5.05832 9.40695 6.66665 9.40695Z" fill="#231F20"/>
<mask id="mask0_3_387" style="mask-type:luminance" maskUnits="userSpaceOnUse" x="3" y="3" width="14" height="15">
<path fill-rule="evenodd" clip-rule="evenodd" d="M16.4497 3.79086C16.1606 3.50086 15.6914 3.50086 15.4022 3.79086L3.55057 15.6425C3.40557 15.7875 3.33307 15.9767 3.33307 16.1667C3.33307 16.3559 3.40557 16.5459 3.55057 16.69C3.83974 16.9792 4.30807 16.9792 4.59807 16.69L16.4497 4.83836C16.7389 4.54836 16.7389 4.08003 16.4497 3.79086ZM13.3333 16.0736C12.6442 16.0736 12.0833 15.5128 12.0833 14.8236C12.0833 14.1344 12.6442 13.5736 13.3333 13.5736C14.0225 13.5736 14.5833 14.1344 14.5833 14.8236C14.5833 15.5128 14.0225 16.0736 13.3333 16.0736ZM13.3333 11.9069C11.725 11.9069 10.4167 13.2153 10.4167 14.8236C10.4167 16.4319 11.725 17.7403 13.3333 17.7403C14.9417 17.7403 16.25 16.4319 16.25 14.8236C16.25 13.2153 14.9417 11.9069 13.3333 11.9069ZM6.66665 5.24028C7.35582 5.24028 7.91665 5.80111 7.91665 6.49028C7.91665 7.17945 7.35582 7.74028 6.66665 7.74028C5.97749 7.74028 5.41665 7.17945 5.41665 6.49028C5.41665 5.80111 5.97749 5.24028 6.66665 5.24028ZM6.66665 9.40695C8.27499 9.40695 9.58332 8.09861 9.58332 6.49028C9.58332 4.88195 8.27499 3.57361 6.66665 3.57361C5.05832 3.57361 3.74999 4.88195 3.74999 6.49028C3.74999 8.09861 5.05832 9.40695 6.66665 9.40695Z" fill="white"/>
</mask>
<g mask="url(#mask0_3_387)">
<rect y="0.240234" width="20" height="20" fill="#B5C7DB"/>
</g>
</svg>
