<svg width="21" height="21" viewBox="0 0 21 21" fill="none" xmlns="http://www.w3.org/2000/svg">
<path fill-rule="evenodd" clip-rule="evenodd" d="M14.6668 3.7002H16.3334C16.7918 3.7002 17.1668 4.0752 17.1668 4.53353V16.2002C17.1668 16.6585 16.7918 17.0335 16.3334 17.0335H14.6668C14.2084 17.0335 13.8334 16.6585 13.8334 16.2002C13.8334 15.7419 14.2084 15.3669 14.6668 15.3669H15.5001V5.36686H14.6668C14.2084 5.36686 13.8334 4.99186 13.8334 4.53353C13.8334 4.0752 14.2084 3.7002 14.6668 3.7002ZM9.16661 6.3672C9.53661 6.09136 10.0574 6.16636 10.3333 6.53386L12.8333 9.8672C13.0499 10.1555 13.0566 10.5505 12.8483 10.8464L10.5033 14.1797C10.3408 14.4105 10.0833 14.5339 9.82077 14.5339C9.65577 14.5339 9.48827 14.4847 9.34244 14.3822C8.96577 14.1172 8.87494 13.5972 9.13994 13.2205L10.5716 11.1855C10.5604 11.1867 10.5498 11.1898 10.5393 11.1929C10.5265 11.1967 10.5137 11.2005 10.4999 11.2005H3.83327C3.37327 11.2005 2.99994 10.8272 2.99994 10.3672C2.99994 9.90636 3.37327 9.53386 3.83327 9.53386H10.4999H10.5008L8.99994 7.53303C8.72411 7.16553 8.79827 6.64303 9.16661 6.3672Z" fill="#231F20"/>
<mask id="mask0_44_733" style="mask-type:luminance" maskUnits="userSpaceOnUse" x="3" y="3" width="15" height="15">
<path fill-rule="evenodd" clip-rule="evenodd" d="M14.6668 3.7002H16.3334C16.7918 3.7002 17.1668 4.0752 17.1668 4.53353V16.2002C17.1668 16.6585 16.7918 17.0335 16.3334 17.0335H14.6668C14.2084 17.0335 13.8334 16.6585 13.8334 16.2002C13.8334 15.7419 14.2084 15.3669 14.6668 15.3669H15.5001V5.36686H14.6668C14.2084 5.36686 13.8334 4.99186 13.8334 4.53353C13.8334 4.0752 14.2084 3.7002 14.6668 3.7002ZM9.16661 6.3672C9.53661 6.09136 10.0574 6.16636 10.3333 6.53386L12.8333 9.8672C13.0499 10.1555 13.0566 10.5505 12.8483 10.8464L10.5033 14.1797C10.3408 14.4105 10.0833 14.5339 9.82077 14.5339C9.65577 14.5339 9.48827 14.4847 9.34244 14.3822C8.96577 14.1172 8.87494 13.5972 9.13994 13.2205L10.5716 11.1855C10.5604 11.1867 10.5498 11.1898 10.5393 11.1929C10.5265 11.1967 10.5137 11.2005 10.4999 11.2005H3.83327C3.37327 11.2005 2.99994 10.8272 2.99994 10.3672C2.99994 9.90636 3.37327 9.53386 3.83327 9.53386H10.4999H10.5008L8.99994 7.53303C8.72411 7.16553 8.79827 6.64303 9.16661 6.3672Z" fill="white"/>
</mask>
<g mask="url(#mask0_44_733)">
<rect x="0.500122" y="0.366943" width="20" height="20" fill="#1F6AE5"/>
</g>
</svg>
