<svg width="145" height="48" viewBox="0 0 145 48" fill="none" xmlns="http://www.w3.org/2000/svg">
<path d="M47.446 25.866V47.1242H42.3224V38.3726H34.3524V47.1242H29.2288V25.866H34.3524V34.1937H42.3224V25.866H47.446Z" fill="#2867C7"/>
<path d="M50.1254 38.6456C50.1254 36.9094 50.445 35.3852 51.0842 34.0729C51.7433 32.7608 52.6322 31.7513 53.7508 31.0447C54.8694 30.3382 56.1179 29.9849 57.4962 29.9849C58.6747 29.9849 59.7034 30.2272 60.5823 30.7116C61.4812 31.1961 62.1703 31.8321 62.6497 32.6194V30.2272H67.7733V47.1247H62.6497V44.7323C62.1503 45.5197 61.4512 46.1557 60.5523 46.6402C59.6734 47.1247 58.6448 47.367 57.4662 47.367C56.1079 47.367 54.8694 47.0137 53.7508 46.3071C52.6322 45.5803 51.7433 44.5608 51.0842 43.2485C50.445 41.9161 50.1254 40.3818 50.1254 38.6456ZM62.6497 38.6759C62.6497 37.3839 62.2902 36.3644 61.571 35.6174C60.8719 34.8704 60.013 34.4969 58.9943 34.4969C57.9755 34.4969 57.1066 34.8704 56.3876 35.6174C55.6884 36.3442 55.3389 37.3536 55.3389 38.6456C55.3389 39.9377 55.6884 40.9673 56.3876 41.7344C57.1066 42.4814 57.9755 42.8548 58.9943 42.8548C60.013 42.8548 60.8719 42.4814 61.571 41.7344C62.2902 40.9875 62.6497 39.9679 62.6497 38.6759Z" fill="#2867C7"/>
<path d="M95.4808 30.2271L90.9564 47.1246H85.2935L82.6569 36.1623L79.9302 47.1246H74.2973L69.7429 30.2271H74.8665L77.2336 42.3097L80.0501 30.2271H85.4733L88.3197 42.2491L90.6568 30.2271H95.4808Z" fill="#2867C7"/>
<path d="M113.195 38.4034C113.195 38.8879 113.165 39.3925 113.105 39.9175H101.509C101.589 40.9673 101.919 41.7748 102.498 42.3401C103.098 42.8851 103.827 43.1577 104.686 43.1577C105.964 43.1577 106.853 42.6126 107.352 41.5224H112.806C112.526 42.6328 112.016 43.6321 111.277 44.5204C110.558 45.4086 109.649 46.1051 108.551 46.6099C107.452 47.1146 106.223 47.367 104.865 47.367C103.227 47.367 101.769 47.0137 100.491 46.3071C99.2123 45.6005 98.2135 44.5911 97.4945 43.2788C96.7754 41.9666 96.4158 40.4322 96.4158 38.6759C96.4158 36.9195 96.7654 35.3852 97.4645 34.0729C98.1836 32.7608 99.1823 31.7513 100.461 31.0447C101.739 30.3382 103.207 29.9849 104.865 29.9849C106.483 29.9849 107.922 30.3281 109.18 31.0145C110.439 31.7009 111.417 32.6799 112.116 33.9518C112.835 35.2237 113.195 36.7076 113.195 38.4034ZM107.951 37.0407C107.951 36.1523 107.652 35.4457 107.053 34.9209C106.453 34.396 105.704 34.1335 104.805 34.1335C103.946 34.1335 103.217 34.3859 102.618 34.8906C102.039 35.3953 101.679 36.112 101.539 37.0407H107.951Z" fill="#2867C7"/>
<path fill-rule="evenodd" clip-rule="evenodd" d="M35.0874 8.117C21.9294 9.09624 6.64398 18.3541 0.577087 23.6021C1.50157 19.2116 6.74027 14.4542 9.24408 12.6243H3.75499C5.00688 10.7947 8.49293 6.99116 12.422 6.41341L7.51068 4.39127C10.6308 2.65801 16.4185 2.89874 18.9222 3.23576L15.4554 0.0578248C32.3561 -0.664087 43.1898 5.54691 44.4899 9.01342C43.912 8.66677 40.8367 8.03416 39.9699 8.03417C38.0247 7.92114 37.0735 7.86852 35.0874 8.117ZM31.0924 7.64793C29.6455 4.71823 33.5631 2.56082 36.7801 7.04859C34.499 7.117 33.3839 7.15355 31.0924 7.64793Z" fill="#2867C7"/>
<path d="M49.5463 17.6798C45.5017 10.9445 22.4302 16.5704 19.3628 23.9457C17.3368 25.1007 14.389 26.4976 11.3944 27.9166C6.2758 30.3421 1.0207 32.8322 0 34.2902C16.0339 10.1688 51.8574 3.23557 49.5463 17.6798Z" fill="#2867C7"/>
<path d="M120.323 47.0518H113.542L121.524 38.9093L113.066 30.2807H119.848L124.915 35.4505C130.386 30.7466 134.724 25.1562 145 25.1562C138.149 29.1164 128.307 38.9093 128.307 38.9093L120.323 47.0518Z" fill="#2867C7"/>
<path d="M136.29 47.0517H129.508L126.277 43.7557L129.661 40.2898L136.29 47.0517Z" fill="#2867C7"/>
</svg>
